<svg xmlns="http://www.w3.org/2000/svg" xmlns:xlink="http://www.w3.org/1999/xlink" xmlns:inkscape="http://www.inkscape.org/namespaces/inkscape" version="1.1" width="612" height="792" viewBox="0 0 612 792">
<defs>
<clipPath id="clip_0">
<path transform="matrix(1,0,0,-1,0,792)" d="M0 792H612V0H0Z"/>
</clipPath>
</defs>
<g inkscape:groupmode="layer" inkscape:label="Layer 1">
<g clip-path="url(#clip_0)">
<path transform="matrix(1,0,0,-1,176.4002,449.5338)" d="M0 0C-.659 10.424-2.063 11.957-7.407 9.72-11.674 7.934-15.991 5.973-19.755 3.333-29.578-3.557-38.501-11.064-36.429-25.193-35.514-31.433-30.836-35.195-24.705-34.068-17.107-32.672-10.85-28.848-4.84-24.331-3.684-23.462-2.913-22.53-2.732-21.144-1.705-13.285-.699-5.424 0 0M11.407 25.712C12.357 18.265 11.287 9.117 11.006 .016 10.784-7.221 9.595-14.503 9.608-21.82 9.614-24.644 9.654-27.476 9.877-30.289 10.23-34.735 12.047-37.527 17.212-36.565 18.812-36.267 20.574-36.358 22.181-36.678 25.975-37.434 27.882-41.761 25.912-44.796 19.843-54.143 7.851-53.52 2.787-43.595-1.35-35.486-1.317-35.562-9.759-39.254-14.315-41.246-18.913-43.095-23.832-44.207-34.68-46.66-43.693-40.784-46.382-30.097-48.572-21.396-47.585-13.334-43.748-5.512-40.542 1.023-35.592 6.153-29.447 9.995-21.101 15.213-11.772 18.448-2.935 22.68-.227 23.977 .566 25.6 .555 28.462 .507 40.602 .138 52.592-4.655 64.106-9.116 74.822-22.422 81.06-32.213 75.335-39.262 71.213-44.795 64.849-45.093 55.762-45.208 52.273-46.412 49.886-49.591 48.109-53.991 45.65-57.262 46.652-58.162 51.614-58.744 54.825-58.649 57.936-56.633 61.14-53.018 66.883-50.373 73.185-46.453 78.829-40.441 87.486-24.63 94.123-12.274 86.569-8.385 84.191-3.858 83.448-.378 79.691 6.821 71.919 8.164 62.38 9.954 52.743 11.515 44.335 11.71 35.894 11.407 25.712"/>
<path transform="matrix(1,0,0,-1,350.0706,371.7147)" d="M0 0C-.18-5.699 .345-11.341 1.265-16.931 2.629-25.216 5.002-33.161 10.136-40.003 12.094-42.612 14.324-44.948 18.073-43.85 26.092-41.501 32.235-35.662 35.34-28.907 40.232-18.264 42.393-6.576 41.822 5.583 41.154 19.802 38.945 33.718 35.621 47.458 34.552 51.881 32.249 56.283 29.492 59.924 27.61 62.411 24.562 58.8 21.657 59.176 14.94 60.048 12.316 54.314 10.223 49.837 2.871 34.115 .366 17.229 0 0M-8.916-20.432C-9.072-18.547-8.862-15.269-9.678-12.271-12.766-.932-10.586 10.083-8.637 21.27-6.72 32.269-3.974 42.91-.083 53.397 1.887 58.706 4.926 62.816 8.901 66.271 14.185 70.864 18.721 76.737 26.587 77.544 29.6 77.853 32.231 77.578 33.245 74.687 36.751 64.693 43.139 55.867 45.28 45.366 46.57 39.036 47.33 32.598 48.315 26.206 50.568 11.587 52.235-3.012 49.093-17.76 46.147-31.586 40.575-43.855 27.98-51.304 16.22-58.259 9.556-57.427 .001-46.686-3.282-42.995-9.153-26.681-8.916-20.432"/>
<path transform="matrix(1,0,0,-1,412.5143,502.1643)" d="M0 0C-2.322-.715-3.718 .295-4.704 2.06-5.984 4.351-5.794 6.62-4.052 8.537-2.152 10.627-.276 12.863 2.015 14.454 14.757 23.3 18.203 37.339 22.57 50.842 24.961 58.239 23.971 65.717 23.569 73.376 23.228 79.858 21.6 85.808 20.479 91.994 19.681 96.394 17.715 100.236 15.123 103.672 11.974 107.846 7.842 108.105 4.685 104.464 2.507 101.951 .322 100.714-2.561 102.862-5.446 105.011-8.136 107.459-5.839 111.615-3.311 116.187-.5 121.444 5.08 121.54 11.348 121.648 17.675 119.478 21.669 113.968 24.656 109.847 28.712 106.455 30.248 101.255 31.062 98.498 32.642 99.999 33.905 101.246 39 106.282 43.335 112.048 47.713 117.614 55.157 127.074 59.919 126.933 71.215 122.077 77.244 119.484 81.862 114.771 85.622 109.347 87.319 106.898 88.788 104.346 90.962 102.177 93.633 99.513 92.832 96.815 89.362 95.048 84.541 92.593 79.381 94.266 76.508 98.983 73.508 103.908 71.078 109.333 65.379 112.022 61.378 113.911 57.953 113.336 55.007 110.081 46.864 101.08 38.577 92.179 35.213 80.014 34.028 75.726 34.809 71.409 34.773 67.108 34.6 46.606 27.838 28.457 15.341 12.343 13.053 9.392 9.984 7.284 8.642 3.298 7.456-.223 3.052 .443 0 0"/>
<path transform="matrix(1,0,0,-1,234.1885,338.7217)" d="M0 0C.541-8.972 .85-21.277 3.604-33.364 4.22-36.07 4.096-39.011 3.912-41.818 3.504-48.038 5.644-53.957 5.77-60.115 6.045-73.591-5.252-78.606-17.162-74.232-20.257-73.095-23.114-71.319-26.133-69.952-27.348-69.401-27.904-68.561-28.122-67.331-28.896-62.968-27.532-59.45-23.943-56.856-20.458-54.338-17.572-55.405-15.98-59.784-15.057-62.324-14.296-65.19-10.831-64.903-6.878-64.576-6.945-61.28-6.893-58.487-6.708-48.511-8.332-38.685-9.598-28.833-9.808-27.196-10.243-25.573-10.295-23.934-10.522-16.812-10.832-9.753-11.679-2.616-13.038 8.831-10.884 19.736-4.526 30.233 3.712 43.834 16.386 47.004 30.283 48.762 34.56 49.303 38.905 49.286 43.214 49.584 47.131 49.855 50.465 48.029 53.414 46.028 57.641 43.16 55.981 34.579 51.139 32.559 49.628 31.929 48.528 32.367 47.704 33.62 45.23 37.383 41.035 38.71 37.288 38.627 24.368 38.34 12.022 36.134 4.227 23.911 .72 18.412-.413 13.732 0 0"/>
<path transform="matrix(1,0,0,-1,303.026,361.2292)" d="M0 0C-1.196-6.582-4.919-12.256-6.905-18.573-9.185-25.822-11.363-33.083-12.437-40.628-13.627-48.98-15.408-57.211-15.841-65.717-16.435-77.389-16.528-88.928-13.804-100.366-12.416-106.196-11.091-111.978-7.281-116.91-5.069-119.775-3.004-120.373-.263-117.919 3.282-114.745 7.743-112.364 8.773-107.051 9.218-104.75 9.837-102.139 12.613-101.799 15.246-101.477 17.421-103.032 18.924-105.154 20.413-107.256 21.079-109.417 19.792-112.129 16.585-118.882 11.074-123.352 5.212-127.487 2.91-129.11 .299-130.291-2.143-131.722-5.51-133.696-7.885-132.677-11.018-130.351-24.007-120.706-25.778-106.427-26.78-92.241-27.693-79.329-27.516-66.284-26.385-53.331-26.096-50.027-27.286-50.071-29.767-50.949-32.462-51.903-35.08-53.951-38.165-51.496-41.658-48.718-41.524-44.564-37.482-42.738-35.237-41.723-32.752-41.156-30.32-40.656-25.282-39.619-21.973-36.252-21.536-31.617-20.799-23.804-16.827-17.114-15.196-9.676-14.193-5.101-12.617-.761-9.971 3.152-8.352 5.548-6.353 7.231-3.303 6.14-.504 5.14 .174 2.789 0 0"/>
</g>
</g>
</svg>
